<?xml version="1.0" encoding="utf-8"?>
<!-- Generator: Adobe Illustrator 24.1.2, SVG Export Plug-In . SVG Version: 6.00 Build 0)  -->
<svg version="1.1" id="Layer_1" xmlns="http://www.w3.org/2000/svg" xmlns:xlink="http://www.w3.org/1999/xlink" x="0px" y="0px"
	 viewBox="0 0 24 24" style="enable-background:new 0 0 24 24;" xml:space="preserve">
<style type="text/css">
	.st0{fill:none;}
	.st1{fill:#333534;stroke:url(#SVGID_1_);stroke-miterlimit:10;}
</style>
<path class="st0" d="M0,0h24v24H0V0z"/>
<linearGradient id="SVGID_1_" gradientUnits="userSpaceOnUse" x1="2.5" y1="11.9987" x2="21.5025" y2="11.9987">
	<stop  offset="0" style="stop-color:#78FFD6"/>
	<stop  offset="1" style="stop-color:#A8FF78"/>
</linearGradient>
<path class="st1" d="M3,17.5v3C3,20.8,3.2,21,3.5,21h3c0.1,0,0.3,0,0.3-0.1L17.8,9.9l-3.8-3.8L3.2,17.1C3.1,17.2,3,17.3,3,17.5z
	 M20.7,7c0.4-0.4,0.4-1,0-1.4l-2.3-2.3c-0.4-0.4-1-0.4-1.4,0l-1.8,1.8l3.8,3.8C18.9,8.9,20.7,7,20.7,7z"/>
</svg>
